<svg width="949" height="160" viewBox="0 0 949 160" fill="none" xmlns="http://www.w3.org/2000/svg">
<path d="M501 64L532.806 96" stroke="black" stroke-width="2"/>
<path d="M533 64L501.194 96" stroke="black" stroke-width="2"/>
<path d="M612.344 89.9272C619.026 89.9272 624.442 84.5247 624.442 77.8601C624.442 71.1959 619.026 65.7934 612.344 65.7934C605.662 65.7934 600.246 71.1959 600.246 77.8601C600.246 84.5247 605.662 89.9272 612.344 89.9272Z" fill="#1C1C1C"/>
<path d="M591.377 58.1575C587.367 59.6726 585.032 62.7078 583.797 65.6701C582.505 68.7684 579.749 71.7005 576.339 71.7005H565.028C565.162 71.2535 564.707 68.5657 565.969 61.912C567.851 51.9894 575.236 46.0076 581.697 43.2736C587.604 40.774 600.384 39.385 614.903 44.2122C629.421 49.0394 636.681 64.862 639.101 70.3597C641.521 75.8572 638.504 77.2602 636.681 77.3323C632.765 77.4868 629.441 68.002 618.667 61.912C610.601 57.353 600.249 54.8052 591.377 58.1575Z" fill="#FE4D01"/>
<path d="M635.488 84.1045C636.285 83.0987 637.475 82.4226 638.773 82.4226C640.143 82.4226 641.215 83.5116 640.969 84.8342C640.382 87.9957 638.58 93.9212 633.053 100.525C627.737 106.875 619.206 113.933 613.291 119.029C607.376 124.124 596.352 131.767 596.352 131.097C596.352 128.683 598.083 117.156 597.025 113.263C595.966 109.37 587.554 107.344 581.639 103.991C575.724 100.639 568.677 94.0194 566.66 87.181C564.645 80.8475 565.029 75.852 565.029 75.852H579.01C581.968 75.852 583.447 77.3271 585.329 80.6794C587.211 84.0317 588.436 86.177 595.008 90.4679C601.58 94.7588 613.434 95.725 621.76 93.4178C627.916 91.7125 632.846 87.4366 635.488 84.1045Z" fill="#FE4D01"/>
<path d="M685.66 106.187C681.853 106.187 678.569 105.363 675.809 103.713C673.065 102.046 670.948 99.7231 669.456 96.7436C667.981 93.7471 667.244 90.2625 667.244 86.2894C667.244 82.3167 667.981 78.815 669.456 75.7851C670.948 72.738 673.022 70.3644 675.68 68.6641C678.355 66.9471 681.476 66.0885 685.043 66.0885C687.1 66.0885 689.132 66.4252 691.138 67.0986C693.145 67.7719 694.971 68.8662 696.617 70.3812C698.263 71.8795 699.575 73.8659 700.553 76.3404C701.53 78.815 702.019 81.862 702.019 85.4814V88.0065H671.565V82.8553H695.846C695.846 80.6668 695.4 78.7141 694.508 76.997C693.634 75.2799 692.382 73.9248 690.753 72.9316C689.141 71.9384 687.238 71.4418 685.043 71.4418C682.625 71.4418 680.533 72.031 678.767 73.2094C677.018 74.3709 675.672 75.8861 674.729 77.7546C673.785 79.6231 673.314 81.6263 673.314 83.7643V87.1984C673.314 90.1278 673.828 92.6108 674.857 94.6478C675.903 96.6677 677.352 98.2079 679.204 99.2687C681.056 100.312 683.208 100.834 685.66 100.834C687.255 100.834 688.695 100.615 689.981 100.178C691.284 99.7231 692.408 99.0497 693.351 98.1574C694.294 97.2484 695.023 96.1208 695.537 94.7738L701.401 96.3899C700.784 98.3427 699.747 100.06 698.289 101.541C696.832 103.006 695.031 104.15 692.888 104.975C690.744 105.783 688.335 106.187 685.66 106.187Z" fill="#1C1C1C"/>
<path d="M712.546 66.5936L722.011 82.4514L731.477 66.5936H738.473L725.715 85.9865L738.473 105.379H731.477L722.011 90.3297L712.546 105.379H705.55L718.102 85.9865L705.55 66.5936H712.546Z" fill="#1C1C1C"/>
<path d="M756.588 106.288C754.084 106.288 751.812 105.825 749.771 104.9C747.731 103.957 746.11 102.602 744.91 100.834C743.71 99.0498 743.11 96.8951 743.11 94.3699C743.11 92.1477 743.555 90.3464 744.447 88.966C745.339 87.5689 746.53 86.4746 748.022 85.6833C749.514 84.8923 751.16 84.3032 752.961 83.9158C754.778 83.5119 756.605 83.192 758.439 82.9563C760.84 82.6534 762.786 82.426 764.278 82.2746C765.787 82.1061 766.885 81.8286 767.57 81.4411C768.273 81.054 768.625 80.3807 768.625 79.4212V79.2192C768.625 76.7275 767.931 74.7918 766.541 73.4114C765.17 72.031 763.086 71.3408 760.291 71.3408C757.394 71.3408 755.121 71.9637 753.475 73.2094C751.829 74.4551 750.672 75.7851 750.003 77.1989L744.241 75.179C745.27 72.8222 746.642 70.9873 748.357 69.6742C750.089 68.3443 751.975 67.4184 754.016 66.8966C756.073 66.3579 758.097 66.0885 760.086 66.0885C761.355 66.0885 762.812 66.24 764.458 66.5431C766.121 66.8292 767.725 67.4268 769.268 68.3359C770.828 69.2449 772.123 70.6169 773.152 72.4518C774.181 74.2867 774.695 76.7446 774.695 79.8254V105.379H768.625V100.127H768.316C767.905 100.969 767.219 101.869 766.259 102.829C765.298 103.789 764.021 104.605 762.426 105.278C760.831 105.952 758.885 106.288 756.588 106.288ZM757.514 100.935C759.914 100.935 761.937 100.472 763.584 99.5466C765.247 98.6205 766.499 97.4253 767.339 95.9606C768.196 94.496 768.625 92.9558 768.625 91.3397V85.8856C768.368 86.1885 767.802 86.4663 766.927 86.7187C766.07 86.9544 765.076 87.165 763.944 87.3499C762.829 87.5184 761.74 87.6698 760.677 87.8046C759.631 87.9222 758.782 88.0236 758.131 88.1075C756.553 88.3097 755.079 88.638 753.707 89.0924C752.352 89.53 751.254 90.195 750.414 91.0873C749.591 91.9625 749.18 93.1577 749.18 94.6728C749.18 96.7436 749.96 98.3092 751.52 99.3697C753.098 100.413 755.096 100.935 757.514 100.935Z" fill="#1C1C1C"/>
<path d="M783.602 105.379V66.5936H789.466V72.6539H789.981C790.804 70.5832 792.133 68.9756 793.967 67.8309C795.802 66.6693 798.006 66.0885 800.578 66.0885C803.184 66.0885 805.354 66.6693 807.085 67.8309C808.834 68.9756 810.198 70.5832 811.175 72.6539H811.587C812.598 70.6506 814.116 69.0597 816.139 67.8814C818.163 66.6861 820.589 66.0885 823.418 66.0885C826.951 66.0885 829.84 67.1744 832.086 69.3459C834.333 71.5007 835.456 74.859 835.456 79.4212V105.379H829.386V79.4212C829.386 76.5594 828.588 74.514 826.994 73.2851C825.399 72.0562 823.521 71.4418 821.361 71.4418C818.583 71.4418 816.431 72.2666 814.904 73.9164C813.378 75.5494 812.615 77.6198 812.615 80.1282V105.379H806.442V78.815C806.442 76.6099 805.713 74.834 804.256 73.4871C802.799 72.1236 800.921 71.4418 798.623 71.4418C797.045 71.4418 795.571 71.8542 794.199 72.6791C792.844 73.504 791.747 74.6487 790.907 76.1134C790.084 77.561 789.672 79.2359 789.672 81.1382V105.379H783.602Z" fill="#1C1C1C"/>
<path d="M869.28 89.5216V66.5936H875.35V105.379H869.28V98.814H868.868C867.942 100.784 866.502 102.459 864.547 103.839C862.592 105.203 860.123 105.885 857.139 105.885C854.67 105.885 852.475 105.354 850.555 104.294C848.634 103.216 847.125 101.6 846.028 99.4452C844.931 97.2738 844.382 94.5381 844.382 91.2387V66.5936H850.452V90.8348C850.452 93.6628 851.258 95.9185 852.87 97.6021C854.499 99.2854 856.574 100.127 859.094 100.127C860.603 100.127 862.138 99.7485 863.698 98.9909C865.276 98.2333 866.596 97.0719 867.659 95.5063C868.74 93.9407 869.28 91.9458 869.28 89.5216Z" fill="#1C1C1C"/>
<path d="M912.28 75.2799L906.827 76.7951C906.484 75.9028 905.978 75.0359 905.309 74.1942C904.658 73.3356 903.766 72.6286 902.634 72.0731C901.503 71.5175 900.054 71.2398 898.288 71.2398C895.87 71.2398 893.855 71.7869 892.243 72.8811C890.648 73.9585 889.851 75.3304 889.851 76.997C889.851 78.4784 890.399 79.6485 891.497 80.507C892.594 81.3656 894.309 82.081 896.641 82.6534L902.506 84.0675C906.038 84.909 908.67 86.1968 910.402 87.9309C912.134 89.648 913 91.8615 913 94.5719C913 96.7941 912.349 98.7803 911.045 100.531C909.759 102.282 907.958 103.662 905.644 104.672C903.329 105.682 900.637 106.187 897.567 106.187C893.537 106.187 890.202 105.329 887.562 103.612C884.921 101.895 883.249 99.3864 882.546 96.087L888.308 94.6728C888.856 96.7603 889.894 98.3259 891.42 99.3697C892.963 100.413 894.978 100.935 897.464 100.935C900.294 100.935 902.54 100.346 904.203 99.1678C905.884 97.9722 906.724 96.5413 906.724 94.8748C906.724 93.5281 906.244 92.4001 905.284 91.4911C904.323 90.5654 902.849 89.875 900.86 89.4207L894.275 87.9055C890.657 87.0637 887.999 85.7592 886.301 83.9916C884.621 82.2074 883.78 79.9768 883.78 77.3002C883.78 75.1118 884.407 73.1757 885.658 71.4923C886.927 69.8089 888.65 68.4874 890.828 67.5279C893.023 66.5683 895.509 66.0885 898.288 66.0885C902.197 66.0885 905.266 66.9302 907.496 68.6137C909.742 70.2971 911.337 72.5192 912.28 75.2799Z" fill="#1C1C1C"/>
<path d="M41.5546 103.875V95.5658C41.5546 89.2987 40.78 87.4679 38.3858 82.2571L25.8517 54.9354H16.9792L33.0342 89.8621V103.875H41.5546ZM47.1175 78.5954L57.5392 54.9354H48.8779L38.4563 78.5954H47.1175ZM136.124 104.579C140.068 104.579 143.307 102.748 145.56 99.2979L145.983 103.875H153.728V54.9354H145.349V72.61C143.236 69.4412 140.138 67.7512 136.476 67.7512C128.378 67.7512 122.745 74.5817 122.745 86.4117C122.745 98.1008 128.238 104.579 136.124 104.579ZM187.599 101.481V94.6504C184.993 96.4108 180.627 97.96 176.543 97.96C170.417 97.96 168.093 95.0729 167.741 89.1579H187.951V84.7217C187.951 72.3987 182.529 67.7512 174.149 67.7512C163.939 67.7512 159.08 75.5675 159.08 86.2708C159.08 98.5937 165.136 104.579 175.839 104.579C181.191 104.579 185.134 103.171 187.599 101.481ZM82.185 79.7221C82.185 71.1312 77.8192 67.8921 68.9467 67.8921C63.4542 67.8921 59.0179 70.2158 56.4829 72.0467V79.2996C59.1588 77.1167 63.2429 74.5817 67.9608 74.5817C71.9746 74.5817 73.8054 75.99 73.8054 79.7925V82.0458H72.4675C59.6517 82.0458 53.9479 86.2004 53.9479 93.5942C53.9479 100.425 58.3137 104.368 64.7921 104.368C69.7212 104.368 71.8338 102.748 73.4533 101.058H73.8054C73.8758 101.974 74.1575 103.171 74.4392 103.875H82.6075C82.3258 100.988 82.185 98.1008 82.185 95.2137V79.7221ZM97.395 78.4546C98.9442 76.5533 101.409 74.9337 104.437 74.9337C107.394 74.9337 108.732 76.2012 108.732 78.8771V103.875H117.112V78.0321C117.112 70.9904 114.295 67.8921 107.465 67.8921C102.465 67.8921 99.5075 69.7229 97.8175 71.4129H97.395L97.1838 68.4554H89.0154V103.875H97.395V78.4546ZM213.371 103.875H222.807L211.259 85.6371L221.258 68.4554H212.878L206.823 79.1587L200.063 68.4554H190.627L201.33 85.4258L190.204 103.875H198.725L205.837 91.9042L213.371 103.875ZM138.589 74.3704C143.095 74.3704 145.349 77.9617 145.349 86.13C145.349 94.3687 142.955 97.96 138.237 97.96C133.66 97.96 131.406 94.4392 131.406 86.4117C131.406 78.0321 133.8 74.3704 138.589 74.3704ZM174.008 74.3704C178.163 74.3704 179.43 77.8208 179.43 82.2571V82.9612H167.741C167.952 77.3279 169.995 74.3704 174.008 74.3704ZM73.8054 95.425C72.7492 96.9742 70.7775 98.2417 67.82 98.2417C64.2992 98.2417 62.5388 96.1996 62.5388 93.1012C62.5388 89.0171 65.4258 87.6087 72.6083 87.6087H73.8054V95.425Z" fill="black"/>
<mask id="mask0_1_2" style="mask-type:luminance" maskUnits="userSpaceOnUse" x="236" y="47" width="66" height="65">
<path d="M301.083 47H236.083V112H301.083V47Z" fill="white"/>
</mask>
<g mask="url(#mask0_1_2)">
<path d="M246.917 79.5C246.917 67.5338 256.617 57.8333 268.583 57.8333C280.549 57.8333 290.25 67.5338 290.25 79.5C290.25 91.4662 280.549 101.167 268.583 101.167C256.617 101.167 246.917 91.4662 246.917 79.5Z" fill="white"/>
<path d="M268.583 112C260.507 111.805 257.31 106.406 256.334 101.192C255.804 98.3578 256.037 93.645 256.334 91.9628C256.817 89.2212 257.598 85.2807 258.462 80.7082C259.698 74.1561 262.979 70.4294 270.061 69.1004L281.645 66.8882C281.951 65.1689 282.533 60.6152 282.003 57.8085C281.018 52.539 276.957 47.0836 268.713 47C250.758 47 236.083 61.5446 236.083 79.5C236.083 97.4554 250.628 112 268.583 112Z" fill="url(#paint0_linear_1_2)"/>
<path d="M268.583 47C276.66 47.1952 280.655 52.6041 281.632 57.8178C282.161 60.6524 281.129 65.355 280.832 67.0372C280.349 69.7788 279.568 73.7193 278.704 78.2918C277.468 84.8439 274.187 88.5706 267.106 89.8996L256.326 92.0161C256.019 93.7354 255.006 98.3822 255.536 101.189C256.521 106.458 260.21 111.917 268.453 112C286.409 112 301.083 97.4554 301.083 79.5C301.083 61.5446 286.539 47 268.583 47Z" fill="url(#paint1_linear_1_2)"/>
</g>
<path d="M333.464 104.579C338.745 104.579 342.337 102.678 344.52 101.199V94.3687C341.703 96.4108 338.605 97.96 334.098 97.96C326.352 97.96 322.69 91.6929 322.69 79.4404C322.69 66.8358 326.211 60.8504 334.52 60.8504C338.393 60.8504 341.985 62.5404 344.52 64.16V57.3296C342.266 55.71 338.605 54.2312 334.098 54.2312C321.071 54.2312 314.029 63.8079 314.029 79.4404C314.029 95.4954 321.353 104.579 333.464 104.579Z" fill="black"/>
<path d="M358.544 54.9354H350.164V103.875H358.544V54.9354Z" fill="black"/>
<path d="M379.792 67.7513C370.568 67.7513 364.16 74.3 364.16 86.2004C364.16 98.0304 370.568 104.579 379.792 104.579C389.017 104.579 395.425 98.0304 395.425 86.13C395.425 74.3 389.017 67.7513 379.792 67.7513ZM379.792 97.96C375.145 97.96 372.821 94.3688 372.821 86.2004C372.821 77.9617 375.145 74.3704 379.792 74.3704C384.44 74.3704 386.764 77.9617 386.764 86.13C386.764 94.3688 384.44 97.96 379.792 97.96Z" fill="black"/>
<path d="M420.416 93.8758C418.867 95.7771 416.403 97.3967 413.375 97.3967C410.417 97.3967 409.079 96.1292 409.079 93.4533V68.4554H400.7V94.2983C400.7 101.34 403.516 104.438 410.347 104.438C415.346 104.438 418.304 102.607 419.994 100.917H420.416L420.628 103.875H428.796V68.4554H420.416V93.8758Z" fill="black"/>
<path d="M447.818 104.579C451.761 104.579 455.001 102.748 457.254 99.2979L457.676 103.875H465.422V54.9354H457.043V72.61C454.93 69.4412 451.832 67.7512 448.17 67.7512C440.072 67.7512 434.439 74.5817 434.439 86.4117C434.439 98.1008 439.931 104.579 447.818 104.579ZM450.283 74.3704C454.789 74.3704 457.043 77.9617 457.043 86.13C457.043 94.3687 454.649 97.96 449.931 97.96C445.354 97.96 443.1 94.4392 443.1 86.4117C443.1 78.0321 445.494 74.3704 450.283 74.3704Z" fill="black"/>
<defs>
<linearGradient id="paint0_linear_1_2" x1="236.083" y1="112" x2="287.234" y2="50.6431" gradientUnits="userSpaceOnUse">
<stop stop-color="#D2DFFF"/>
<stop offset="1" stop-color="#4E7FFF"/>
</linearGradient>
<linearGradient id="paint1_linear_1_2" x1="301.083" y1="47" x2="249.132" y2="106.544" gradientUnits="userSpaceOnUse">
<stop stop-color="#D2DFFF"/>
<stop offset="1" stop-color="#4E7FFF"/>
</linearGradient>
</defs>
</svg>